<svg xmlns="http://www.w3.org/2000/svg" xmlns:xlink="http://www.w3.org/1999/xlink" version="1.1" id="Layer_1" x="0px" y="0px" viewBox="0 0 115.8 97.4" style="enable-background:new 0 0 115.8 97.4;" xml:space="preserve"><path class="st0" d="M66.8,1.6L60.4,6c-1.6,1.1-3.8,1.2-5.4,0.1L48,1.4c-1.4-0.9-3-1.4-4.7-1.4L4.8,0.1C2.2,0.1,0,2.3,0,4.9v76.6 c0,2.7,2.2,4.8,4.8,4.8h34.8c1,0,2,0.3,2.9,0.9l12.4,9.1c1.7,1.3,4.1,1.2,5.8-0.1l11.7-9c0.8-0.6,1.9-1,2.9-1H111 c2.7,0,4.8-2.2,4.8-4.8V4.9c0-2.7-2.2-4.8-4.8-4.8L71,0.2C69.5,0.2,68,0.7,66.8,1.6z M48.1,73.2l-0.8-0.6c-0.8-0.6-1.8-0.9-2.9-0.9 h-25c-2.7,0-4.8-2.2-4.8-4.8V19.6c0-2.7,2.2-4.8,4.8-4.8L40,14.7c0.9,0,1.9,0.3,2.7,0.8l12.6,8.3c1.6,1.1,3.8,1.1,5.4-0.1l11.4-8 c0.8-0.6,1.8-0.9,2.7-0.9l21.5-0.1c2.7,0,4.8,2.2,4.8,4.8v47.3c0,2.7-2.2,4.8-4.8,4.8h-26c-1.1,0-2.1,0.4-2.9,1L60.6,78 c-1.7,1.3-4,1.3-5.8,0.1L48.1,73.2z"/></svg>